<?xml version="1.0" encoding="UTF-8" standalone="no"?>
<!-- Created with Inkscape (http://www.inkscape.org/) -->

<svg
   width="25.4mm"
   height="128.5mm"
   viewBox="0 0 25.4 128.5"
   version="1.1"
   id="svg2717"
   inkscape:version="1.2 (dc2aedaf03, 2022-05-15)"
   sodipodi:docname="RectVCO.svg"
   xmlns:inkscape="http://www.inkscape.org/namespaces/inkscape"
   xmlns:sodipodi="http://sodipodi.sourceforge.net/DTD/sodipodi-0.dtd"
   xmlns="http://www.w3.org/2000/svg"
   xmlns:svg="http://www.w3.org/2000/svg">
  <sodipodi:namedview
     id="namedview2719"
     pagecolor="#ffffff"
     bordercolor="#666666"
     borderopacity="1.0"
     inkscape:showpageshadow="2"
     inkscape:pageopacity="0.0"
     inkscape:pagecheckerboard="0"
     inkscape:deskcolor="#d1d1d1"
     inkscape:document-units="mm"
     showgrid="false"
     inkscape:zoom="1.0502349"
     inkscape:cx="-120.92533"
     inkscape:cy="296.12423"
     inkscape:window-width="1920"
     inkscape:window-height="1043"
     inkscape:window-x="0"
     inkscape:window-y="0"
     inkscape:window-maximized="1"
     inkscape:current-layer="layer2" />
  <defs
     id="defs2714" />
  <g
     inkscape:label="Ebene 1"
     inkscape:groupmode="layer"
     id="layer1">
    <rect
       style="fill:#000080;stroke-width:0.295813"
       id="rect2774"
       width="25.4"
       height="128.5"
       x="0"
       y="0" />
    <g
       aria-label="1V/Oct"
       id="text2958"
       style="font-size:4.23333px;line-height:1.25;fill:#ffffff;stroke-width:0.264583"
       transform="translate(2.5400006)">
      <path
         d="M 5.0605741,86.06958 H 4.6967723 v -1.887222 q 0,-0.08888 0,-0.190169 0.00207,-0.101285 0.00413,-0.200504 0.00413,-0.101286 0.0062,-0.192236 0.00413,-0.09302 0.0062,-0.163298 -0.03514,0.03721 -0.062012,0.06408 -0.026872,0.02687 -0.05581,0.05168 -0.026872,0.02481 -0.057878,0.05374 -0.031006,0.02687 -0.074414,0.06408 L 4.1572708,83.919842 3.9588334,83.665594 4.7505157,83.047545 h 0.3100584 z"
         style="font-family:'Droid Sans';-inkscape-font-specification:'Droid Sans';fill:#ffffff"
         id="path3217" />
      <path
         d="m 7.9172447,83.047545 h 0.409277 L 7.3157316,86.06958 H 6.9291922 L 5.9225361,83.047545 h 0.40721 l 0.6097814,1.91616 q 0.059945,0.188102 0.1033527,0.363802 0.043408,0.173633 0.078548,0.326595 0.031006,-0.152962 0.078548,-0.326595 0.047542,-0.1757 0.111621,-0.376204 z"
         style="font-family:'Droid Sans';-inkscape-font-specification:'Droid Sans';fill:#ffffff"
         id="path3219" />
      <path
         d="M 9.8623441,83.047545 8.7378659,86.06958 H 8.367863 l 1.1265453,-3.022035 z"
         style="font-family:'Droid Sans';-inkscape-font-specification:'Droid Sans';fill:#ffffff"
         id="path3221" />
      <path
         d="m 12.785161,84.554428 q 0,0.349333 -0.08475,0.636653 -0.08268,0.287321 -0.248046,0.49196 -0.165365,0.204638 -0.411344,0.316259 -0.243913,0.111621 -0.564307,0.111621 -0.33693,0 -0.584976,-0.111621 -0.24598,-0.111621 -0.409277,-0.316259 -0.161231,-0.204639 -0.239779,-0.49196 -0.07855,-0.289387 -0.07855,-0.640787 0,-0.351399 0.07855,-0.636653 0.07855,-0.287321 0.241846,-0.489892 0.163297,-0.202571 0.411344,-0.312125 0.248046,-0.111621 0.584977,-0.111621 0.320393,0 0.562239,0.111621 0.243912,0.109554 0.409277,0.314192 0.165364,0.202571 0.248046,0.489892 0.08475,0.285254 0.08475,0.63872 z m -2.213817,0 q 0,0.283187 0.05374,0.510563 0.05374,0.225309 0.163297,0.384472 0.111621,0.157097 0.281119,0.241846 0.171566,0.08268 0.40721,0.08268 0.235645,0 0.405143,-0.08268 0.171566,-0.08475 0.28112,-0.241846 0.111621,-0.159163 0.163297,-0.384472 0.05168,-0.227376 0.05168,-0.510563 0,-0.285253 -0.05168,-0.510562 -0.05168,-0.225309 -0.16123,-0.380339 -0.10955,-0.157096 -0.279049,-0.239778 -0.169498,-0.08475 -0.405142,-0.08475 -0.235645,0 -0.40721,0.08475 -0.171566,0.08268 -0.283187,0.239778 -0.111621,0.15503 -0.165364,0.380339 -0.05374,0.225309 -0.05374,0.510562 z"
         style="font-family:'Droid Sans';-inkscape-font-specification:'Droid Sans';fill:#ffffff"
         id="path3223" />
      <path
         d="m 14.275507,86.110921 q -0.208773,0 -0.390673,-0.06408 -0.181901,-0.06614 -0.31626,-0.206705 -0.134359,-0.142627 -0.21084,-0.361735 -0.07648,-0.221175 -0.07648,-0.531233 0,-0.324528 0.07855,-0.549837 0.07855,-0.227376 0.214974,-0.367936 0.138493,-0.142627 0.322461,-0.206705 0.183968,-0.06408 0.394808,-0.06408 0.16123,0 0.314192,0.03514 0.155029,0.03514 0.258382,0.08682 L 14.753,84.198897 q -0.04754,-0.02067 -0.10542,-0.03927 -0.05788,-0.02067 -0.119889,-0.03514 -0.06201,-0.01654 -0.121956,-0.02481 -0.05995,-0.01033 -0.113688,-0.01033 -0.324528,0 -0.473356,0.208772 -0.148828,0.206706 -0.148828,0.644922 0,0.436149 0.148828,0.63872 0.150895,0.200504 0.456819,0.200504 0.167432,0 0.30179,-0.03721 0.136426,-0.03927 0.248047,-0.09095 v 0.334863 q -0.111621,0.05995 -0.239779,0.09095 -0.12609,0.03101 -0.310058,0.03101 z"
         style="font-family:'Droid Sans';-inkscape-font-specification:'Droid Sans';fill:#ffffff"
         id="path3225" />
      <path
         d="m 16.053175,85.80293 q 0.03721,0 0.08268,-0.0041 0.04754,-0.0041 0.09095,-0.01033 0.04341,-0.0062 0.07855,-0.01447 0.03721,-0.0083 0.05581,-0.01447 v 0.285253 q -0.02687,0.0124 -0.06821,0.02481 -0.04134,0.0124 -0.09095,0.02067 -0.04961,0.01034 -0.103353,0.01447 -0.05374,0.0062 -0.105419,0.0062 -0.128158,0 -0.237712,-0.03307 -0.109554,-0.03307 -0.190169,-0.113688 -0.07855,-0.08062 -0.124023,-0.217041 -0.04547,-0.138492 -0.04547,-0.347265 V 84.08314 h -0.320394 v -0.167432 l 0.320394,-0.16123 0.16123,-0.475423 h 0.217041 v 0.520898 h 0.570507 V 84.08314 H 15.77413 v 1.316714 q 0,0.200504 0.06408,0.30179 0.06615,0.101286 0.214974,0.101286 z"
         style="font-family:'Droid Sans';-inkscape-font-specification:'Droid Sans';fill:#ffffff"
         id="path3227" />
    </g>
    <g
       aria-label="MckAudio"
       id="text2958-6"
       style="font-size:3.52778px;line-height:1.25;fill:#ffffff;stroke-width:0.264583"
       inkscape:label="text2958-6"
       transform="translate(2.5399992,5.2916667)">
      <path
         d="M 2.96922,4.1928196 2.4162818,2.2170561 h -0.015503 q 0.010335,0.1584745 0.017225,0.3066137 0.00345,0.063734 0.00517,0.1309137 0.00345,0.067179 0.00517,0.1326362 0.00345,0.065457 0.00345,0.1257461 0.00172,0.060289 0.00172,0.1085206 V 4.1928196 H 1.9563613 V 1.6744532 h 0.7269156 l 0.5443254,1.9258096 h 0.010335 L 3.816714,1.6744532 H 4.5436297 V 4.1928196 H 4.045813 V 3.0008158 q 0,-0.044786 0,-0.1016304 0.00172,-0.056844 0.00345,-0.1205784 0.00172,-0.063734 0.00345,-0.1291912 0.00345,-0.065457 0.00517,-0.1274686 0.00689,-0.1446941 0.012058,-0.301446 H 4.056161 L 3.4601464,4.1928196 Z"
         style="font-weight:bold;font-family:'Droid Sans';-inkscape-font-specification:'Droid Sans Bold';fill:#ffffff"
         id="path3200" />
      <path
         d="m 5.9371717,4.2272706 q -0.2067059,0 -0.3737931,-0.056844 Q 5.3980139,4.1135823 5.279158,3.9947265 5.1620247,3.8741481 5.0982904,3.6881128 5.0362786,3.500355 5.0362786,3.2402501 q 0,-0.2876657 0.063734,-0.4805912 0.065457,-0.194648 0.1825902,-0.3117813 0.1188559,-0.1171333 0.2842206,-0.1670872 0.1670872,-0.049954 0.370348,-0.049954 0.1481392,0 0.2945558,0.036174 0.1464167,0.036173 0.2756079,0.1016304 L 6.3557511,2.7682717 Q 6.2420628,2.7183178 6.1369874,2.6873119 6.0319119,2.6545835 5.9371717,2.6545835 q -0.1912029,0 -0.2773304,0.1464166 -0.086127,0.1446941 -0.086127,0.4358049 0,0.2893882 0.086127,0.4271921 0.086127,0.1378039 0.2704402,0.1378039 0.1498617,0 0.2721627,-0.037896 0.122301,-0.039619 0.2497696,-0.099908 v 0.4375274 q -0.063734,0.031006 -0.1240235,0.055122 -0.060289,0.024116 -0.122301,0.039619 -0.060289,0.015503 -0.1274686,0.022393 -0.065457,0.00861 -0.141249,0.00861 z"
         style="font-weight:bold;font-family:'Droid Sans';-inkscape-font-specification:'Droid Sans Bold';fill:#ffffff"
         id="path3202" />
      <path
         d="M 7.4013382,3.1455099 7.5942636,2.8526766 8.0645195,2.26701 H 8.6570763 L 7.9611665,3.1024462 8.7018626,4.1928196 H 8.0955254 L 7.6269921,3.4521236 7.4220088,3.5933726 v 0.599447 H 6.8966314 V 1.5125336 H 7.4220088 V 2.7079825 L 7.394448,3.1455099 Z"
         style="font-weight:bold;font-family:'Droid Sans';-inkscape-font-specification:'Droid Sans Bold';fill:#ffffff"
         id="path3204" />
      <path
         d="M 10.455417,4.1928196 10.283163,3.5933726 H 9.4149979 L 9.2410205,4.1928196 H 8.7018627 L 9.5200734,1.6641179 h 0.6528456 l 0.821656,2.5287017 z M 10.159139,3.1455099 9.9972194,2.5942943 Q 9.9868841,2.5632884 9.9662136,2.4926639 9.945543,2.4220394 9.9214273,2.3376345 9.8990341,2.251507 9.8783636,2.1653796 9.857693,2.0792521 9.8490802,2.0189629 q -0.00689,0.037896 -0.018948,0.089573 -0.010335,0.051676 -0.025838,0.1102431 -0.01378,0.056844 -0.029283,0.1154108 -0.015503,0.058567 -0.029283,0.1102431 -0.01378,0.051677 -0.025838,0.091295 -0.010335,0.039619 -0.015503,0.058567 l -0.160197,0.5512156 z"
         style="font-weight:bold;font-family:'Droid Sans';-inkscape-font-specification:'Droid Sans Bold';fill:#ffffff"
         id="path3206" />
      <path
         d="m 12.529366,4.1928196 -0.07062,-0.2463245 h -0.02756 q -0.04306,0.07407 -0.103353,0.1274686 -0.05857,0.051677 -0.129191,0.086127 -0.07062,0.034451 -0.149862,0.049954 -0.07924,0.017225 -0.16192,0.017225 -0.141249,0 -0.25666,-0.039619 -0.11541,-0.041341 -0.198093,-0.1274686 -0.08268,-0.086127 -0.127468,-0.2187637 -0.04479,-0.1326362 -0.04479,-0.3186715 V 2.26701 h 0.525378 v 1.1248244 q 0,0.2084284 0.06201,0.3135039 0.06373,0.1033529 0.201538,0.1033529 0.103353,0 0.172255,-0.041341 0.0689,-0.041341 0.10852,-0.1223009 0.04134,-0.08096 0.05857,-0.1998157 0.01722,-0.1188559 0.01722,-0.2721627 V 2.26701 h 0.525378 v 1.9258096 z"
         style="font-weight:bold;font-family:'Droid Sans';-inkscape-font-specification:'Droid Sans Bold';fill:#ffffff"
         id="path3208" />
      <path
         d="m 14.048654,4.2272706 q -0.148139,0 -0.27044,-0.063734 -0.122301,-0.063734 -0.210151,-0.1877579 -0.08785,-0.125746 -0.137804,-0.3117813 -0.04823,-0.1860353 -0.04823,-0.4306372 0,-0.2480471 0.04823,-0.4340823 0.04995,-0.1877579 0.139527,-0.3135039 0.09129,-0.1274686 0.217041,-0.1912029 0.125746,-0.063734 0.27733,-0.063734 0.09302,0 0.170532,0.022393 0.07752,0.020671 0.139527,0.060289 0.06201,0.037896 0.110243,0.089572 0.04995,0.049954 0.08785,0.1102432 h 0.01723 q -0.01034,-0.067179 -0.01895,-0.1360814 -0.0086,-0.058567 -0.0155,-0.1240235 -0.0052,-0.067179 -0.0052,-0.1240235 V 1.5125336 h 0.525377 v 2.680286 H 14.673939 L 14.572309,3.94305 h -0.02239 q -0.03617,0.058567 -0.08268,0.1119657 -0.04651,0.051677 -0.108521,0.089573 -0.06029,0.037896 -0.137804,0.060289 -0.07579,0.022393 -0.172255,0.022393 z m 0.191203,-0.4185794 q 0.09302,0 0.158475,-0.031006 0.06546,-0.032728 0.105075,-0.096463 0.04134,-0.065457 0.06029,-0.1619196 0.02067,-0.096463 0.02239,-0.2256539 V 3.236805 q 0,-0.1395265 -0.01722,-0.2480471 -0.01723,-0.1085205 -0.05684,-0.1808676 -0.03962,-0.07407 -0.106798,-0.1119657 -0.06718,-0.037896 -0.16881,-0.037896 -0.165365,0 -0.242879,0.1498617 -0.07752,0.1481392 -0.07752,0.4323598 0,0.2842205 0.07752,0.4271921 0.07924,0.141249 0.246324,0.141249 z"
         style="font-weight:bold;font-family:'Droid Sans';-inkscape-font-specification:'Droid Sans Bold';fill:#ffffff"
         id="path3210" />
      <path
         d="m 15.604116,1.7691934 q 0,-0.07407 0.02239,-0.122301 0.02239,-0.049954 0.06029,-0.079237 0.03962,-0.031006 0.0913,-0.043064 0.0534,-0.012058 0.111966,-0.012058 0.05857,0 0.110243,0.012058 0.05168,0.012058 0.08957,0.043064 0.03962,0.029283 0.06201,0.079237 0.02412,0.048231 0.02412,0.122301 0,0.072347 -0.02412,0.1223009 -0.02239,0.049954 -0.06201,0.08096 -0.0379,0.029283 -0.08957,0.043064 -0.05168,0.012058 -0.110243,0.012058 -0.05857,0 -0.111966,-0.012058 -0.05168,-0.01378 -0.0913,-0.043064 -0.0379,-0.031006 -0.06029,-0.08096 -0.02239,-0.049954 -0.02239,-0.1223009 z m 0.54777,2.4236262 H 15.626509 V 2.26701 h 0.525377 z"
         style="font-weight:bold;font-family:'Droid Sans';-inkscape-font-specification:'Droid Sans Bold';fill:#ffffff"
         id="path3212" />
      <path
         d="m 17.140629,3.2264697 q 0,0.2876656 0.08096,0.4340823 0.08096,0.1446941 0.26355,0.1446941 0.180868,0 0.261828,-0.1464166 0.08096,-0.1464167 0.08096,-0.4323598 0,-0.2876657 -0.08096,-0.4289147 -0.08096,-0.1429715 -0.265273,-0.1429715 -0.180867,0 -0.261827,0.1429715 -0.07924,0.141249 -0.07924,0.4289147 z m 1.223009,0 q 0,0.2411568 -0.06201,0.4271921 -0.06029,0.1860353 -0.1757,0.3135039 -0.113689,0.1274686 -0.279053,0.194648 -0.163642,0.065457 -0.368626,0.065457 -0.191203,0 -0.3514,-0.065457 -0.160197,-0.067179 -0.27733,-0.194648 -0.115411,-0.1274686 -0.180868,-0.3135039 -0.06546,-0.1860353 -0.06546,-0.4271921 0,-0.2394343 0.06029,-0.4254696 0.06201,-0.1860353 0.1757,-0.3117813 0.11541,-0.1274686 0.279053,-0.1929255 0.163642,-0.065457 0.370348,-0.065457 0.191202,0 0.3514,0.065457 0.160197,0.065457 0.275607,0.1929255 0.117134,0.125746 0.182591,0.3117813 0.06546,0.1860353 0.06546,0.4254696 z"
         style="font-weight:bold;font-family:'Droid Sans';-inkscape-font-specification:'Droid Sans Bold';fill:#ffffff"
         id="path3214" />
    </g>
    <g
       aria-label="Out"
       id="text2958-7"
       style="font-size:4.23333px;line-height:1.25;fill:#ffffff;stroke-width:0.264583"
       transform="translate(2.5400005)">
      <path
         d="m 9.4158597,109.55443 q 0,0.34933 -0.084749,0.63665 -0.082682,0.28732 -0.2480466,0.49196 -0.1653645,0.20464 -0.4113441,0.31626 -0.2439125,0.11162 -0.5643061,0.11162 -0.3369301,0 -0.5849768,-0.11162 -0.2459796,-0.11162 -0.409277,-0.31626 -0.1612303,-0.20464 -0.2397784,-0.49196 -0.078548,-0.28939 -0.078548,-0.64079 0,-0.3514 0.078548,-0.63665 0.078548,-0.28732 0.2418455,-0.48989 0.1632974,-0.20257 0.411344,-0.31213 Q 7.7746176,108 8.1115477,108 q 0.3203936,0 0.5622391,0.11162 0.2439125,0.10956 0.409277,0.3142 0.1653644,0.20257 0.2480466,0.48989 0.084749,0.28525 0.084749,0.63872 z m -2.2138165,0 q 0,0.28318 0.053743,0.51056 0.053743,0.22531 0.1632974,0.38447 0.111621,0.1571 0.2811195,0.24185 0.1715656,0.0827 0.40721,0.0827 0.2356443,0 0.4051428,-0.0827 0.1715657,-0.0847 0.2811196,-0.24185 0.111621,-0.15916 0.1632974,-0.38447 0.051676,-0.22738 0.051676,-0.51056 0,-0.28526 -0.051676,-0.51056 -0.051676,-0.22531 -0.1612303,-0.38034 -0.109554,-0.1571 -0.2790525,-0.23978 -0.1694986,-0.0847 -0.4051429,-0.0847 -0.2356444,0 -0.40721,0.0847 -0.1715656,0.0827 -0.2831866,0.23978 -0.111621,0.15503 -0.1653644,0.38034 -0.053743,0.2253 -0.053743,0.51056 z"
         style="font-family:'Droid Sans';-inkscape-font-specification:'Droid Sans';fill:#ffffff"
         id="path3230" />
      <path
         d="m 11.50772,111.06958 -0.05581,-0.30386 h -0.02067 q -0.05168,0.0889 -0.124024,0.15503 -0.07028,0.0641 -0.155029,0.10749 -0.08475,0.0413 -0.179834,0.062 -0.09508,0.0207 -0.194303,0.0207 -0.188102,0 -0.330729,-0.0475 -0.142626,-0.0475 -0.237711,-0.14883 -0.09509,-0.10128 -0.144694,-0.25838 -0.04754,-0.1571 -0.04754,-0.37414 v -1.48208 h 0.376204 v 1.46141 q 0,0.26872 0.109554,0.40308 0.109554,0.13436 0.338997,0.13436 0.167431,0 0.28112,-0.0537 0.113688,-0.0537 0.1819,-0.15709 0.07028,-0.10542 0.09922,-0.25839 0.03101,-0.15296 0.03101,-0.3514 v -1.17822 h 0.376204 v 2.26963 z"
         style="font-family:'Droid Sans';-inkscape-font-specification:'Droid Sans';fill:#ffffff"
         id="path3232" />
      <path
         d="m 13.217175,110.80293 q 0.03721,0 0.08268,-0.004 0.04754,-0.004 0.09095,-0.0103 0.04341,-0.006 0.07855,-0.0145 0.03721,-0.008 0.05581,-0.0145 v 0.28526 q -0.02687,0.0124 -0.06821,0.0248 -0.04134,0.0124 -0.09095,0.0207 -0.04961,0.0103 -0.103353,0.0145 -0.05374,0.006 -0.10542,0.006 -0.128157,0 -0.237711,-0.0331 -0.109554,-0.0331 -0.190169,-0.11369 -0.07855,-0.0806 -0.124024,-0.21704 -0.04547,-0.13849 -0.04547,-0.34727 v -1.31671 h -0.320394 v -0.16743 l 0.320394,-0.16123 0.16123,-0.47542 h 0.217041 v 0.52089 h 0.570508 v 0.28319 h -0.570508 v 1.31671 q 0,0.20051 0.06408,0.30179 0.06615,0.10129 0.214974,0.10129 z"
         style="font-family:'Droid Sans';-inkscape-font-specification:'Droid Sans';fill:#ffffff"
         id="path3234" />
    </g>
  </g>
  <g
     inkscape:groupmode="layer"
     id="layer2"
     inkscape:label="components"
     style="display:none;fill:#00ff00">
    <circle
       style="fill:#00ff00;stroke-width:0.261656"
       id="pitch"
       cx="12.7"
       cy="77.5"
       r="2.5" />
    <circle
       style="fill:#0000ff;stroke-width:0.191195"
       id="path3099"
       cx="12.7"
       cy="102.5"
       r="2.5"
       inkscape:label="saw" />
  </g>
</svg>
